<svg xmlns="http://www.w3.org/2000/svg" viewBox="0 0 512 512"><defs><linearGradient id="sun" x2="0" y2="1"><stop stop-color="#fff16b"/><stop offset="1" stop-color="#ffb800"/></linearGradient><linearGradient id="panel" x2="0" y2="1"><stop stop-color="#39b7ff"/><stop offset="1" stop-color="#1351c5"/></linearGradient></defs><ellipse cx="266" cy="451" rx="180" ry="24" fill="#1e6eb5" opacity=".18"/><g stroke="#ffba08" stroke-width="17" stroke-linecap="round"><path d="M360 54v30M430 88l-20 22M456 158h-29M291 87l20 22M264 154h28"/></g><circle cx="360" cy="144" r="76" fill="url(#sun)" stroke="#f6a900" stroke-width="6"/><ellipse cx="337" cy="139" rx="8" ry="12" fill="#71431d"/><ellipse cx="383" cy="139" rx="8" ry="12" fill="#71431d"/><path d="M338 163q22 26 44 0" fill="none" stroke="#71431d" stroke-width="8" stroke-linecap="round"/><path d="M210 300l-20 143h25l45-143M335 300l35 143h-25l-62-143" fill="#687a91" stroke="#42566d" stroke-width="7"/><path d="M72 198l260 0 77 143H149z" fill="url(#panel)" stroke="#d6f3ff" stroke-width="12" stroke-linejoin="round"/><g stroke="#9ce7ff" stroke-width="6"><path d="M139 204l49 128M204 204l49 128M269 204l49 128M99 250h280M124 296h280"/></g><circle cx="115" cy="180" r="9" fill="#fff" opacity=".8"/></svg>